<svg xmlns="http://www.w3.org/2000/svg" version="1.1" xmlns:xlink="http://www.w3.org/1999/xlink" xmlns:svgjs="http://svgjs.com/svgjs" height="102.64999389648438" width="303.9718955993652"><defs id="SvgjsDefs1389"></defs><g id="SvgjsG1390" rel="mainfill" name="main_text" xmlns:name="main_text" transform="translate(94.18190612792968,-165.19000244140625)" fill="#000000"><path d="M56.21 210.72C64.76 206.44 69.89 198.64 69.89 189.24C69.89 182.29 67.33 176.52 62.20 172.03C57.07 167.44 50.23 165.19 41.79 165.19L5.66 165.19L5.66 240L28.64 240L28.64 213.28L31.85 213.28L51.73 240L78.55 240ZM28.64 196.50L28.64 184.43L39.11 184.43C43.39 184.43 46.27 186.67 46.27 190.41C46.27 194.15 43.39 196.50 39.11 196.50ZM142.46 240L142.46 220.23L106.12 220.23L106.12 209.76L134.12 209.76L134.12 191.59L106.12 191.59L106.12 184.96L141.82 184.96L141.82 165.19L83.15 165.19L83.15 240ZM146.41 184.85L164.58 211.79L145.34 240L169.50 240L177.51 226.21L185.31 240L209.79 240L190.76 211.68L208.93 184.85L184.78 184.85L177.73 197.79L170.56 184.85Z" fill="#000000" style="fill: rgb(0, 0, 0);"></path></g><g id="SvgjsG1391" rel="mainfill" name="slogan_text" xmlns:name="slogan_text" transform="translate(98.4818977355957,-141.5500030517578)" fill="#000000"><path d="M1.72 226.36C1.58 226.36 1.50 226.43 1.50 226.57L1.50 239.79C1.50 239.92 1.58 240 1.72 240L7.28 240C10.13 240 11.81 238.63 11.81 236.31C11.81 234.42 10.64 233.42 9.54 233.09C9.27 233.01 9.29 232.84 9.54 232.76C10.44 232.39 11.36 231.47 11.36 229.85C11.36 227.66 9.70 226.36 6.97 226.36ZM3.71 232.02L3.71 228.33L6.97 228.33C8.30 228.33 9.12 228.99 9.12 230.07C9.12 231.29 8.20 232.02 6.40 232.02ZM3.71 238.03L3.71 233.97L6.56 233.97C8.55 233.97 9.54 234.69 9.54 236.12C9.54 237.33 8.69 238.03 7.26 238.03ZM21.06 239.73C21.20 239.69 21.26 239.59 21.22 239.45L20.83 237.99C20.79 237.85 20.69 237.79 20.55 237.83L19.69 238.05C19.28 238.18 18.70 238.24 18.15 238.24C16.92 238.24 16.14 237.60 15.93 236.56L18.99 236.10C20.94 235.80 21.86 234.94 21.86 233.44C21.86 231.51 20.44 230.34 18.09 230.34C15.24 230.34 13.57 232.23 13.57 235.28C13.57 238.30 15.22 240.21 18.17 240.21C18.80 240.21 19.46 240.14 20.16 239.96ZM15.73 234.89C15.89 233.09 16.77 232.29 18.05 232.29C19.11 232.29 19.71 232.70 19.71 233.48C19.71 233.99 19.34 234.30 18.66 234.42ZM31.76 230.75C31.76 230.61 31.68 230.53 31.54 230.53L23.62 230.53C23.48 230.53 23.40 230.61 23.40 230.75L23.40 232.25C23.40 232.39 23.48 232.47 23.62 232.47L26.49 232.47L26.49 239.79C26.49 239.92 26.56 240 26.70 240L28.46 240C28.59 240 28.67 239.92 28.67 239.79L28.67 232.47L31.54 232.47C31.68 232.47 31.76 232.39 31.76 232.25ZM40.79 239.73C40.93 239.69 40.99 239.59 40.95 239.45L40.56 237.99C40.52 237.85 40.42 237.79 40.29 237.83L39.43 238.05C39.02 238.18 38.43 238.24 37.89 238.24C36.66 238.24 35.88 237.60 35.66 236.56L38.72 236.10C40.68 235.80 41.59 234.94 41.59 233.44C41.59 231.51 40.17 230.34 37.83 230.34C34.98 230.34 33.30 232.23 33.30 235.28C33.30 238.30 34.96 240.21 37.91 240.21C38.53 240.21 39.19 240.14 39.90 239.96ZM35.47 234.89C35.62 233.09 36.50 232.29 37.79 232.29C38.84 232.29 39.45 232.70 39.45 233.48C39.45 233.99 39.08 234.30 38.39 234.42ZM45.17 230.71C45.15 230.59 45.07 230.53 44.93 230.53L43.96 230.53C43.82 230.53 43.74 230.61 43.74 230.75L43.74 243.98C43.74 244.12 43.82 244.20 43.96 244.20L45.69 244.20C45.83 244.20 45.91 244.12 45.91 243.98L45.91 239.61L46.43 239.84C47.00 240.10 47.51 240.21 48.21 240.21C50.94 240.21 52.58 238.32 52.58 235.26C52.58 232.23 51.04 230.34 48.48 230.34C47.43 230.34 46.51 230.69 45.75 231.55C45.61 231.72 45.46 231.74 45.38 231.53ZM45.89 237.64L45.89 235.20C45.89 233.50 46.67 232.29 48.13 232.29C49.58 232.29 50.44 233.40 50.44 235.26C50.44 237.13 49.58 238.24 48.07 238.24C47.49 238.24 46.94 238.15 46.47 237.91ZM63.01 240C63.14 240 63.22 239.92 63.22 239.79L63.22 230.75C63.22 230.61 63.14 230.53 63.01 230.53L60.78 230.53C60.66 230.53 60.59 230.59 60.55 230.69C60.35 231.14 60.10 231.65 59.86 232.09L57.52 235.86C57.35 236.21 57.13 236.60 56.96 236.94C56.86 237.15 56.70 237.05 56.72 236.90C56.86 236.04 56.92 235.37 56.92 234.44L56.92 230.75C56.92 230.61 56.84 230.53 56.70 230.53L54.94 230.53C54.81 230.53 54.73 230.61 54.73 230.75L54.73 239.79C54.73 239.92 54.81 240 54.94 240L57.15 240C57.27 240 57.35 239.94 57.38 239.82C57.58 239.38 57.83 238.89 58.07 238.44L60.41 234.69L61.00 233.60C61.07 233.38 61.25 233.48 61.21 233.66C61.07 234.52 61.05 235.14 61.05 236.12L61.05 239.79C61.05 239.92 61.13 240 61.27 240ZM73.96 230.75C73.96 230.61 73.88 230.53 73.74 230.53L71.98 230.53C71.85 230.53 71.77 230.61 71.77 230.75L71.77 234.24L67.98 234.24L67.98 230.75C67.98 230.61 67.91 230.53 67.77 230.53L66.03 230.53C65.89 230.53 65.82 230.61 65.82 230.75L65.82 239.79C65.82 239.92 65.89 240 66.03 240L67.77 240C67.91 240 67.98 239.92 67.98 239.79L67.98 236.17L71.77 236.17L71.77 239.79C71.77 239.92 71.85 240 71.98 240L73.74 240C73.88 240 73.96 239.92 73.96 239.79ZM77.02 230.85C76.88 230.88 76.82 230.98 76.86 231.12L77.29 232.56C77.33 232.70 77.43 232.76 77.57 232.72L78.27 232.50C78.74 232.37 79.23 232.31 79.79 232.31C81.24 232.31 82.00 232.95 82.00 234.14L82.00 234.26L79.56 234.26C77.25 234.26 76.01 235.43 76.01 237.27C76.01 239.10 77.22 240.21 79.38 240.21C80.57 240.21 81.45 239.84 82.06 239.18C82.31 238.95 82.43 238.95 82.54 239.22L82.70 239.82C82.74 239.94 82.82 240 82.95 240L83.93 240C84.07 240 84.14 239.92 84.14 239.79L84.14 234.07C84.14 231.70 82.52 230.34 79.89 230.34C79.09 230.34 78.43 230.44 77.76 230.63ZM82.00 235.96L82.00 236.10C82.00 237.54 81.16 238.30 79.62 238.30C78.68 238.30 78.15 237.83 78.15 237.07C78.15 236.41 78.60 235.96 79.56 235.96ZM88.05 230.71C88.03 230.59 87.95 230.53 87.81 230.53L86.84 230.53C86.70 230.53 86.62 230.61 86.62 230.75L86.62 243.98C86.62 244.12 86.70 244.20 86.84 244.20L88.58 244.20C88.71 244.20 88.79 244.12 88.79 243.98L88.79 239.61L89.32 239.84C89.88 240.10 90.39 240.21 91.09 240.21C93.83 240.21 95.47 238.32 95.47 235.26C95.47 232.23 93.92 230.34 91.37 230.34C90.31 230.34 89.39 230.69 88.63 231.55C88.50 231.72 88.34 231.74 88.26 231.53ZM88.77 237.64L88.77 235.20C88.77 233.50 89.55 232.29 91.01 232.29C92.46 232.29 93.32 233.40 93.32 235.26C93.32 237.13 92.46 238.24 90.96 238.24C90.37 238.24 89.82 238.15 89.36 237.91ZM105.75 230.75C105.75 230.61 105.67 230.53 105.54 230.53L103.78 230.53C103.64 230.53 103.57 230.61 103.57 230.75L103.57 234.24L99.78 234.24L99.78 230.75C99.78 230.61 99.70 230.53 99.56 230.53L97.83 230.53C97.69 230.53 97.61 230.61 97.61 230.75L97.61 239.79C97.61 239.92 97.69 240 97.83 240L99.56 240C99.70 240 99.78 239.92 99.78 239.79L99.78 236.17L103.57 236.17L103.57 239.79C103.57 239.92 103.64 240 103.78 240L105.54 240C105.67 240 105.75 239.92 105.75 239.79ZM108.82 230.85C108.68 230.88 108.62 230.98 108.66 231.12L109.09 232.56C109.13 232.70 109.23 232.76 109.36 232.72L110.07 232.50C110.53 232.37 111.02 232.31 111.59 232.31C113.03 232.31 113.79 232.95 113.79 234.14L113.79 234.26L111.35 234.26C109.05 234.26 107.80 235.43 107.80 237.27C107.80 239.10 109.01 240.21 111.18 240.21C112.37 240.21 113.25 239.84 113.85 239.18C114.11 238.95 114.22 238.95 114.34 239.22L114.50 239.82C114.53 239.94 114.61 240 114.75 240L115.73 240C115.86 240 115.94 239.92 115.94 239.79L115.94 234.07C115.94 231.70 114.32 230.34 111.69 230.34C110.88 230.34 110.22 230.44 109.56 230.63ZM113.79 235.96L113.79 236.10C113.79 237.54 112.95 238.30 111.41 238.30C110.47 238.30 109.95 237.83 109.95 237.07C109.95 236.41 110.40 235.96 111.35 235.96ZM126.15 230.75C126.15 230.61 126.07 230.53 125.93 230.53L121.99 230.53C119.71 230.53 118.42 231.63 118.42 233.42C118.42 234.65 119.28 235.45 120.23 235.80C120.45 235.90 120.43 235.98 120.25 236.06C119.53 236.37 119.14 237.01 118.89 237.54L117.89 239.75C117.81 239.90 117.89 240 118.05 240L119.90 240C120.02 240 120.10 239.94 120.16 239.84L120.78 238.46C121.33 237.29 121.87 236.62 123.20 236.62L123.98 236.62L123.98 239.79C123.98 239.92 124.06 240 124.20 240L125.93 240C126.07 240 126.15 239.92 126.15 239.79ZM123.98 232.47L123.98 234.75L122.24 234.75C121.15 234.75 120.53 234.32 120.53 233.60C120.53 232.90 121.03 232.47 121.89 232.47ZM134.99 234.24L134.99 230.75C134.99 230.61 134.91 230.53 134.78 230.53L133.04 230.53C132.90 230.53 132.82 230.61 132.82 230.75L132.82 239.79C132.82 239.92 132.90 240 133.04 240L134.78 240C134.91 240 134.99 239.92 134.99 239.79L134.99 236.19L135.28 236.19C136.36 236.19 136.90 236.88 137.45 237.70L138.80 239.86C138.87 239.96 138.95 240 139.07 240L141.00 240C141.18 240 141.26 239.88 141.16 239.75L139.36 236.82C138.87 236.08 138.23 235.53 137.55 235.24C137.45 235.20 137.47 235.12 137.55 235.08C138.17 234.85 138.74 234.30 139.25 233.56L140.96 230.79C141.04 230.65 140.98 230.53 140.81 230.53L138.89 230.53C138.78 230.53 138.70 230.57 138.62 230.67L137.33 232.64C136.81 233.40 136.24 234.24 135.28 234.24ZM151.80 230.75C151.80 230.61 151.72 230.53 151.58 230.53L144.57 230.53C144.44 230.53 144.36 230.61 144.36 230.75L144.36 235.32C144.36 236.80 143.93 237.70 143.03 238.18L142.47 238.46C142.33 238.52 142.31 238.61 142.37 238.75L143.01 240.14C143.07 240.25 143.17 240.29 143.31 240.23L143.87 239.96C145.71 239.04 146.53 237.58 146.53 235.32L146.53 232.47L149.63 232.47L149.63 239.79C149.63 239.92 149.71 240 149.84 240L151.58 240C151.72 240 151.80 239.92 151.80 239.79ZM162.69 240C162.82 240 162.90 239.92 162.90 239.79L162.90 230.75C162.90 230.61 162.82 230.53 162.69 230.53L160.46 230.53C160.34 230.53 160.27 230.59 160.23 230.69C160.03 231.14 159.78 231.65 159.54 232.09L157.20 235.86C157.03 236.21 156.81 236.60 156.64 236.94C156.54 237.15 156.38 237.05 156.40 236.90C156.54 236.04 156.60 235.37 156.60 234.44L156.60 230.75C156.60 230.61 156.52 230.53 156.38 230.53L154.63 230.53C154.49 230.53 154.41 230.61 154.41 230.75L154.41 239.79C154.41 239.92 154.49 240 154.63 240L156.83 240C156.95 240 157.03 239.94 157.07 239.82C157.26 239.38 157.51 238.89 157.75 238.44L160.09 234.69L160.68 233.60C160.75 233.38 160.93 233.48 160.89 233.66C160.75 234.52 160.74 235.14 160.74 236.12L160.74 239.79C160.74 239.92 160.81 240 160.95 240ZM173.64 230.75C173.64 230.61 173.56 230.53 173.42 230.53L171.67 230.53C171.53 230.53 171.45 230.61 171.45 230.75L171.45 234.24L167.66 234.24L167.66 230.75C167.66 230.61 167.59 230.53 167.45 230.53L165.71 230.53C165.58 230.53 165.50 230.61 165.50 230.75L165.50 239.79C165.50 239.92 165.58 240 165.71 240L167.45 240C167.59 240 167.66 239.92 167.66 239.79L167.66 236.17L171.45 236.17L171.45 239.79C171.45 239.92 171.53 240 171.67 240L173.42 240C173.56 240 173.64 239.92 173.64 239.79ZM184.53 240C184.66 240 184.74 239.92 184.74 239.79L184.74 230.75C184.74 230.61 184.66 230.53 184.53 230.53L182.30 230.53C182.19 230.53 182.11 230.59 182.07 230.69C181.87 231.14 181.62 231.65 181.39 232.09L179.04 235.86C178.87 236.21 178.65 236.60 178.48 236.94C178.38 237.15 178.22 237.05 178.24 236.90C178.38 236.04 178.44 235.37 178.44 234.44L178.44 230.75C178.44 230.61 178.36 230.53 178.22 230.53L176.47 230.53C176.33 230.53 176.25 230.61 176.25 230.75L176.25 239.79C176.25 239.92 176.33 240 176.47 240L178.67 240C178.79 240 178.87 239.94 178.91 239.82C179.10 239.38 179.36 238.89 179.59 238.44L181.93 234.69L182.52 233.60C182.60 233.38 182.77 233.48 182.73 233.66C182.60 234.52 182.58 235.14 182.58 236.12L182.58 239.79C182.58 239.92 182.65 240 182.79 240ZM189.51 234.24L189.51 230.75C189.51 230.61 189.43 230.53 189.29 230.53L187.55 230.53C187.42 230.53 187.34 230.61 187.34 230.75L187.34 239.79C187.34 239.92 187.42 240 187.55 240L189.29 240C189.43 240 189.51 239.92 189.51 239.79L189.51 236.19L189.80 236.19C190.87 236.19 191.42 236.88 191.96 237.70L193.31 239.86C193.39 239.96 193.47 240 193.58 240L195.52 240C195.69 240 195.77 239.88 195.67 239.75L193.88 236.82C193.39 236.08 192.75 235.53 192.06 235.24C191.96 235.20 191.98 235.12 192.06 235.08C192.69 234.85 193.25 234.30 193.76 233.56L195.48 230.79C195.56 230.65 195.50 230.53 195.32 230.53L193.41 230.53C193.29 230.53 193.21 230.57 193.14 230.67L191.85 232.64C191.32 233.40 190.75 234.24 189.80 234.24ZM198.23 230.85C198.09 230.88 198.04 230.98 198.07 231.12L198.50 232.56C198.54 232.70 198.64 232.76 198.78 232.72L199.48 232.50C199.95 232.37 200.44 232.31 201.00 232.31C202.45 232.31 203.21 232.95 203.21 234.14L203.21 234.26L200.77 234.26C198.46 234.26 197.22 235.43 197.22 237.27C197.22 239.10 198.43 240.21 200.59 240.21C201.78 240.21 202.66 239.84 203.27 239.18C203.52 238.95 203.64 238.95 203.75 239.22L203.91 239.82C203.95 239.94 204.03 240 204.16 240L205.14 240C205.28 240 205.35 239.92 205.35 239.79L205.35 234.07C205.35 231.70 203.73 230.34 201.10 230.34C200.30 230.34 199.64 230.44 198.97 230.63ZM203.21 235.96L203.21 236.10C203.21 237.54 202.37 238.30 200.83 238.30C199.89 238.30 199.36 237.83 199.36 237.07C199.36 236.41 199.81 235.96 200.77 235.96Z" fill="#000000" style="fill: rgb(0, 0, 0);"></path></g><g id="SvgjsG1392" rel="mainfill" name="symbol" xmlns:name="symbol_mainfill" transform="translate(-12.617549991607682,-8.206447982788095) scale(1.1)" fill="#282828"><g fill="#282828"><circle fill="" cx="42.451" cy="50.985" r="4.141"></circle><circle fill="" cx="57.306" cy="50.985" r="4.141"></circle><path fill="#282828" d="M87.257,27.221L75.503,15.464c-0.871-0.867-2.023-1.345-3.247-1.345c-1.226,0-2.378,0.478-3.246,1.345   l-7.21,7.208H38.27l-7.207-7.208c-0.868-0.867-2.021-1.345-3.246-1.345c-1.228,0-2.381,0.478-3.246,1.345L12.813,27.221   c-1.79,1.791-1.79,4.703,0,6.493l7.424,7.425c0.866,0.866,2.022,1.344,3.247,1.344c0.335,0,0.665-0.043,0.987-0.114V87.52   c0,3.643,2.96,6.6,6.599,6.6h9.631h18.668h9.63c3.638,0,6.601-2.957,6.601-6.6V42.369c0.321,0.071,0.651,0.114,0.987,0.114   c1.227,0,2.378-0.478,3.246-1.344l7.424-7.425C89.047,31.924,89.047,29.012,87.257,27.221z M35.195,86.255V67.589   c0-3.037,2.469-5.506,5.506-5.506h0.071c-0.298,1.4,0.088,2.917,1.178,4.008l4.989,4.991c0.553,0.55,1.217,0.903,1.917,1.1v19.581   h-8.155C37.664,91.763,35.195,89.293,35.195,86.255z M51.215,91.763V72.182c0.7-0.196,1.364-0.55,1.913-1.1l4.992-4.991   c1.088-1.091,1.476-2.607,1.178-4.008h0.071c3.036,0,5.509,2.469,5.509,5.506v18.666c0,3.038-2.473,5.508-5.509,5.508H51.215z    M68.999,91.763h-4.022c1.394-1.419,2.257-3.362,2.257-5.508V67.589c0-4.337-3.527-7.866-7.864-7.866H40.701   c-4.337,0-7.866,3.529-7.866,7.866v18.666c0,2.146,0.863,4.089,2.259,5.508h-4.025c-2.338,0-4.242-1.9-4.242-4.243V41.04   l11.66-11.658c1.178-1.179,1.563-2.84,1.19-4.352h20.713c-0.37,1.512,0.016,3.172,1.193,4.352l11.655,11.655V87.52   C73.24,89.862,71.341,91.763,68.999,91.763z" style="fill: rgb(40, 40, 40);"></path></g></g></svg>