<svg xmlns="http://www.w3.org/2000/svg" version="1.1" xmlns:xlink="http://www.w3.org/1999/xlink" xmlns:svgjs="http://svgjs.com/svgjs" height="134.2994384765625" width="336.35365295410156"><defs id="SvgjsDefs1376"></defs><g id="SvgjsG1377" rel="mainfill" name="main_text" xmlns:name="main_text" transform="translate(126.3577527999878,-139.1458740234375)" fill="#ffffff"><path d="M62.77 167.94C61.37 185.81 43.63 188.34 28.85 188.34C31.81 176.10 34.62 163.85 37.86 151.61C43.91 150.34 50.11 150.06 55.32 152.17C61.65 154.99 63.34 161.60 62.77 167.94ZM65.17 142.74C52.22 136.41 36.03 139.64 22.66 143.30C19.56 144.15 16.47 147.67 18.30 151.05C19.42 153.58 22.10 154.42 24.77 154.42C18.16 180.04 12.81 205.94 5.91 231.70C3.80 240.14 14.78 245.77 17.17 235.92C20.41 223.95 23.36 211.85 26.18 199.89C29.14 199.89 32.37 199.75 35.47 199.60C35.75 199.89 36.03 200.03 36.45 200.45C35.47 199.75 37.16 201.58 37.44 201.58C38.28 202.70 38.99 204.11 39.55 205.23C41.66 208.75 43.21 212.41 44.76 216.21C47.71 223.25 50.39 230.43 53.63 237.61C56.72 244.22 71.36 241.13 67.56 232.82C64.04 225.22 61.23 216.92 57.85 209.03C55.88 204.95 53.91 200.73 51.23 196.93C65.31 193.13 76.85 184.68 78.26 168.08C79.10 157.52 75.30 147.39 65.17 142.74ZM147.08 140.07C135.40 140.35 123.58 140.35 111.90 140.35C110.21 139.22 107.39 139.50 104.86 140.91C102.18 141.62 99.65 143.87 99.79 146.54C99.79 146.54 99.79 146.68 99.79 146.68C99.79 146.96 99.79 147.10 99.79 147.25C95.99 173.99 91.07 201.01 85.01 227.47C82.90 231.70 84.31 238.87 89.10 239.72C104.44 241.97 119.36 241.27 134.56 239.86C142.30 239.16 140.61 223.53 133.01 224.38C121.47 225.36 110.21 226.21 98.81 225.36C100.92 215.37 103.17 205.38 105.14 195.10C115.70 195.66 126.11 194.82 136.81 194.40C144.55 194.26 142.72 178.77 134.84 179.05C125.83 179.34 116.96 180.04 107.96 179.76C109.50 170.61 111.05 161.32 112.60 152.03C124.28 152.03 135.97 152.03 147.65 151.75C150.88 151.61 155.39 149.22 154.97 145.42C154.83 141.62 150.32 139.93 147.08 140.07ZM208.87 169.34C207.47 166.67 203.24 164.42 200.71 167.37C193.67 175.25 186.49 183.28 179.46 191.44C176.08 184.83 172.84 178.07 170.03 171.31C168.62 168.36 165.80 165.12 162.29 166.95C158.91 168.64 158.06 173.57 159.47 176.80C163.13 184.97 166.93 192.85 170.87 200.87C162.71 210.02 154.68 219.03 146.10 227.90C143.57 230.71 143.28 235.21 145.11 238.45C146.66 241.41 150.46 243.38 153.14 240.42C161.30 231.84 169.46 222.83 177.35 214.10C181.43 221.98 185.37 229.87 189.17 237.75C190.44 240.56 193.11 244.08 196.91 242.25C200.01 240.42 201.13 235.36 199.58 232.40C195.08 222.97 190.58 213.68 185.93 204.53C193.11 196.23 200.43 188.06 207.75 179.90C210.28 177.08 210.70 172.72 208.87 169.34Z" fill="#ffffff" style="fill: rgb(255, 255, 255);"></path></g><g id="SvgjsG1378" rel="mainfill" name="slogan_text" xmlns:name="slogan_text" transform="translate(131.5168240070343,-109.93055725097656)" fill="#ffffff"><path d="M8.42 231.51C9.55 230.99 10.28 229.70 10.28 227.91C10.28 225.16 8.61 223.54 5.90 223.54L1.72 223.54L1.72 240L6.21 240C9.10 240 10.91 238.33 10.91 235.39C10.91 233.42 9.97 232.00 8.42 231.51ZM5.76 225.35C7.48 225.35 8.30 226.17 8.30 227.96C8.30 229.75 7.48 230.69 5.81 230.69L3.65 230.69L3.65 225.35ZM6.04 238.19L3.65 238.19L3.65 232.50L5.88 232.50C7.74 232.50 8.96 233.49 8.96 235.39C8.96 237.32 8.00 238.19 6.04 238.19ZM19.59 236.17C19.38 237.74 18.65 238.45 17.07 238.45C15.64 238.45 14.79 237.60 14.79 235.72L14.79 234.59L21.26 234.59L21.26 231.84C21.26 228.97 19.61 227.32 17.05 227.32C14.53 227.32 12.91 228.97 12.91 231.84L12.91 235.72C12.91 238.61 14.51 240.26 17.03 240.26C19.66 240.26 21.24 238.78 21.42 236.17ZM17.07 229.09C18.55 229.09 19.42 229.96 19.42 231.82L19.42 233.06L14.79 233.06L14.79 231.82C14.79 229.96 15.64 229.09 17.07 229.09ZM30.36 227.63L22.65 227.63L22.65 229.35L25.59 229.35L25.59 240L27.42 240L27.42 229.35L30.36 229.35ZM38.45 236.17C38.24 237.74 37.51 238.45 35.93 238.45C34.50 238.45 33.65 237.60 33.65 235.72L33.65 234.59L40.12 234.59L40.12 231.84C40.12 228.97 38.47 227.32 35.91 227.32C33.39 227.32 31.77 228.97 31.77 231.84L31.77 235.72C31.77 238.61 33.37 240.26 35.89 240.26C38.52 240.26 40.10 238.78 40.28 236.17ZM35.93 229.09C37.41 229.09 38.28 229.96 38.28 231.82L38.28 233.06L33.65 233.06L33.65 231.82C33.65 229.96 34.50 229.09 35.93 229.09ZM47.13 227.35C45.97 227.35 44.89 227.94 44.28 228.76L44.09 227.61L42.71 227.61L42.71 244.23L44.52 244.23L44.52 239.11C45.17 239.86 46.14 240.28 47.13 240.28C49.53 240.28 51.03 238.61 51.03 235.58L51.03 232.12C51.03 229.04 49.43 227.35 47.13 227.35ZM49.15 235.58C49.15 237.65 48.35 238.54 46.80 238.54C45.39 238.54 44.52 237.37 44.52 235.58L44.52 232.08C44.52 230.05 45.50 229.06 46.80 229.06C48.28 229.06 49.15 229.98 49.15 232.12ZM53.64 240L55.52 240L58.63 233.67C59.07 232.73 59.66 231.18 59.83 230.64L59.87 230.66C59.80 231.79 59.78 233.09 59.78 234.31L59.78 240L61.57 240L61.57 227.63L59.68 227.63L56.53 234.22C56.20 234.97 55.66 236.33 55.45 236.90L55.40 236.85C55.45 235.72 55.45 234.69 55.45 233.74L55.45 227.63L53.64 227.63ZM70.38 227.63L70.38 232.76L66.32 232.76L66.32 227.63L64.48 227.63L64.48 240L66.32 240L66.32 234.50L70.38 234.50L70.38 240L72.24 240L72.24 227.63ZM78.94 227.32C76.55 227.32 74.97 228.76 74.88 231.02L76.73 231.02C76.83 229.77 77.70 229.11 78.90 229.11C80.31 229.11 80.99 230.01 80.99 231.63L80.99 232.71L78.87 232.71C76.17 232.71 74.50 234.03 74.50 236.47C74.50 238.85 76.10 240.31 78.36 240.31C79.74 240.31 80.64 239.67 81.18 238.82L81.32 240L82.85 240L82.85 231.60C82.85 228.92 81.44 227.32 78.94 227.32ZM80.99 236.40C80.99 237.70 80.12 238.59 78.71 238.59C77.30 238.59 76.38 237.86 76.38 236.50C76.38 235.11 77.25 234.36 78.85 234.36L80.99 234.36ZM90.18 227.35C89.03 227.35 87.95 227.94 87.34 228.76L87.15 227.61L85.76 227.61L85.76 244.23L87.57 244.23L87.57 239.11C88.23 239.86 89.20 240.28 90.18 240.28C92.58 240.28 94.09 238.61 94.09 235.58L94.09 232.12C94.09 229.04 92.49 227.35 90.18 227.35ZM92.21 235.58C92.21 237.65 91.41 238.54 89.86 238.54C88.44 238.54 87.57 237.37 87.57 235.58L87.57 232.08C87.57 230.05 88.56 229.06 89.86 229.06C91.34 229.06 92.21 229.98 92.21 232.12ZM102.60 227.63L102.60 232.76L98.53 232.76L98.53 227.63L96.70 227.63L96.70 240L98.53 240L98.53 234.50L102.60 234.50L102.60 240L104.46 240L104.46 227.63ZM111.16 227.32C108.76 227.32 107.19 228.76 107.09 231.02L108.95 231.02C109.04 229.77 109.91 229.11 111.11 229.11C112.53 229.11 113.21 230.01 113.21 231.63L113.21 232.71L111.09 232.71C108.39 232.71 106.72 234.03 106.72 236.47C106.72 238.85 108.32 240.31 110.57 240.31C111.96 240.31 112.85 239.67 113.40 238.82L113.54 240L115.06 240L115.06 231.60C115.06 228.92 113.65 227.32 111.16 227.32ZM113.21 236.40C113.21 237.70 112.34 238.59 110.93 238.59C109.52 238.59 108.60 237.86 108.60 236.50C108.60 235.11 109.47 234.36 111.07 234.36L113.21 234.36ZM121.23 227.63C118.80 227.63 117.18 229.18 117.18 231.60C117.18 233.65 118.17 235.04 119.58 235.46L116.76 240L118.90 240L121.41 235.65L123.04 235.65L123.04 240L124.82 240L124.82 227.63ZM123.04 234.03L121.18 234.03C119.74 234.03 119.02 233.18 119.02 231.65C119.02 230.19 119.84 229.35 121.27 229.35L123.04 229.35ZM139.38 240L141.57 240L136.77 232.95L140.98 227.63L138.70 227.63L136.32 230.81C135.78 231.53 135.24 232.31 134.68 233.09L134.68 227.63L132.84 227.63L132.84 240L134.68 240L134.68 235.41L135.57 234.40ZM141.61 240.14C143.94 240.14 144.93 238.35 145.19 234.78C145.31 233.37 145.42 230.99 145.47 229.35L148.65 229.35L148.65 240L150.48 240L150.48 227.63L143.68 227.63C143.64 229.98 143.54 232.45 143.38 234.47C143.21 236.68 142.96 238.35 141.61 238.35ZM153.40 240L155.28 240L158.38 233.67C158.83 232.73 159.42 231.18 159.58 230.64L159.63 230.66C159.56 231.79 159.53 233.09 159.53 234.31L159.53 240L161.32 240L161.32 227.63L159.44 227.63L156.29 234.22C155.96 234.97 155.42 236.33 155.21 236.90L155.16 236.85C155.21 235.72 155.21 234.69 155.21 233.74L155.21 227.63L153.40 227.63ZM170.14 227.63L170.14 232.76L166.07 232.76L166.07 227.63L164.24 227.63L164.24 240L166.07 240L166.07 234.50L170.14 234.50L170.14 240L172.00 240L172.00 227.63ZM174.91 240L176.80 240L179.90 233.67C180.35 232.73 180.93 231.18 181.10 230.64L181.15 230.66C181.08 231.79 181.05 233.09 181.05 234.31L181.05 240L182.84 240L182.84 227.63L180.96 227.63L177.81 234.22C177.48 234.97 176.94 236.33 176.72 236.90L176.68 236.85C176.72 235.72 176.72 234.69 176.72 233.74L176.72 227.63L174.91 227.63ZM192.29 240L194.48 240L189.68 232.95L193.89 227.63L191.61 227.63L189.24 230.81C188.69 231.53 188.15 232.31 187.59 233.09L187.59 227.63L185.75 227.63L185.75 240L187.59 240L187.59 235.41L188.48 234.40ZM199.70 227.32C197.30 227.32 195.73 228.76 195.63 231.02L197.49 231.02C197.58 229.77 198.45 229.11 199.65 229.11C201.06 229.11 201.75 230.01 201.75 231.63L201.75 232.71L199.63 232.71C196.92 232.71 195.26 234.03 195.26 236.47C195.26 238.85 196.85 240.31 199.11 240.31C200.50 240.31 201.39 239.67 201.93 238.82L202.08 240L203.60 240L203.60 231.60C203.60 228.92 202.19 227.32 199.70 227.32ZM201.75 236.40C201.75 237.70 200.88 238.59 199.46 238.59C198.05 238.59 197.14 237.86 197.14 236.50C197.14 235.11 198.01 234.36 199.61 234.36L201.75 234.36Z" fill="#000" style="fill: rgb(255, 255, 255);"></path></g><g id="SvgjsG1379" rel="mainfill" name="symbol" xmlns:name="symbol_mainfill" transform="translate(-6.5,2.1489580154418935) scale(1.3)" fill="#ffffff"><g style="" display="none" fill="#ffffff"><rect x="-730.878" y="-370.879" style="" width="1478.926" height="487.476" display="inline" fill=""></rect></g><g fill="#ffffff"><path d="M57.141,23.67c0.991,0,1.795-0.803,1.795-1.795V12.95c0-0.503-0.211-0.982-0.581-1.322   c-0.37-0.339-0.864-0.506-1.366-0.466c-5.043,0.431-8.846,4.578-8.846,9.645v1.069c0,0.991,0.803,1.795,1.795,1.795   s1.795-0.803,1.795-1.795v-1.069c0-2.444,1.484-4.602,3.615-5.562v6.631C55.347,22.866,56.15,23.67,57.141,23.67z" fill="#ffffff" style="fill: rgb(255, 255, 255);"></path><path d="M53.494,33.997h-0.397c-1.129,0-2.052,0.923-2.052,2.052v3.177c0,1.129,0.923,2.052,2.052,2.052h0.397   c1.129,0,2.052-0.923,2.052-2.052v-3.177C55.546,34.921,54.622,33.997,53.494,33.997z" fill="#ffffff" style="fill: rgb(255, 255, 255);"></path><path d="M93.205,25.556H60.279h-15.69V23.67v-8.974c0-0.503-0.211-0.982-0.581-1.322c-0.37-0.339-0.866-0.505-1.366-0.466   c-5.043,0.431-8.846,4.578-8.846,9.645v30.095c0,2.916-2.372,5.289-5.289,5.289H23.47c-5.83,0-10.573,4.743-10.573,10.574v17.9   c0,0.991,0.803,1.795,1.795,1.795h7.022c0.991,0,1.795-0.803,1.795-1.795v-5.095h17.635v5.734c0,0.991,0.803,1.795,1.795,1.795   h7.34c0.991,0,1.795-0.803,1.795-1.795c0,0,0-20.925,0-21.091c0-3.666,2.26-9.292,5.64-9.548   c7.897-0.599,17.052-3.109,24.427-8.315c0.862-0.608,1.673-1.235,2.453-1.874c0.067-0.055,0.138-0.11,0.204-0.165   C91.399,40.579,95,34.03,95,27.35C95,26.359,94.197,25.556,93.205,25.556z M81.808,41.832c0,1.32-0.641,2.557-1.72,3.318   l-0.018,0.013c-6.692,4.723-15.258,7.657-22.358,7.658c-13.832,0.002-7.975,32.434-9.229,32.434c0,0-3.751,0-3.751,0v-5.734   c0-0.991-0.803-1.795-1.795-1.795H21.714c-0.991,0-1.795,0.803-1.795,1.795v5.095h-3.433V68.511c0-3.857,3.127-6.984,6.984-6.984   h5.037c4.903,0,8.878-3.975,8.878-8.878V22.553c0-2.444,1.484-4.603,3.615-5.563v10.36c0,0.991,0.803,1.795,1.795,1.795h1.77   h15.714h19.697c1.012,0,1.832,0.82,1.832,1.832V41.832z M86.27,39.607c-0.3,0.349-0.872,0.147-0.872-0.314v-8.92   c0-0.679,0.55-1.229,1.229-1.229h4.672C90.856,32.703,89.115,36.291,86.27,39.607z" fill="#ffffff" style="fill: rgb(255, 255, 255);"></path><path d="M13.489,59.337l-5.426-5.426c-0.701-0.7-1.837-0.7-2.538,0c-0.7,0.701-0.7,1.837,0,2.538l5.426,5.426   c0.351,0.35,0.81,0.526,1.269,0.526s0.918-0.175,1.269-0.526C14.189,61.174,14.189,60.038,13.489,59.337z" fill="#ffffff" style="fill: rgb(255, 255, 255);"></path></g></g></svg>


