<svg xmlns="http://www.w3.org/2000/svg" version="1.1" xmlns:xlink="http://www.w3.org/1999/xlink" xmlns:svgjs="http://svgjs.com/svgjs" height="96.00119018554688" width="311.1048095703125"><defs id="SvgjsDefs1984"></defs><g id="SvgjsG1985" rel="mainfill" name="main_text" xmlns:name="main_text" transform="translate(102.25480632781984,-174.44940185546875)" fill="#ffffff"><path d="M30.37 207.60L41.05 207.60C46.78 207.60 48.90 215.81 48.90 223.49C48.90 235.85 56.23 240.88 64.00 240.88C71.85 240.88 79.27 235.76 79.27 227.91C79.27 227.20 78.65 226.85 77.94 226.85C77.33 226.85 76.62 227.20 76.62 227.91C76.62 232.06 74.15 234.26 71.68 234.26C69.21 234.26 66.73 232.06 66.73 227.38C66.73 212.64 61.08 206.54 51.02 206.02L51.02 205.66C63.47 204.16 69.56 197.10 69.56 190.13C69.56 182.36 62.06 174.68 47.58 174.68L6.09 174.68C5.56 174.68 5.30 175.30 5.30 176.00C5.30 176.71 5.56 177.33 6.09 177.33L12.71 177.33L12.71 237.35L6.09 237.35C5.56 237.35 5.30 237.97 5.30 238.68C5.30 239.38 5.56 240 6.09 240L36.99 240C37.52 240 37.78 239.38 37.78 238.68C37.78 237.97 37.52 237.35 36.99 237.35L30.37 237.35ZM40.43 177.33C47.49 177.33 51.11 184.21 51.11 191.10C51.11 197.81 47.67 204.96 40.61 204.96L30.37 204.96L30.37 177.33ZM145.38 240C145.65 240 146.09 239.56 146.18 238.15C146.27 237.35 146.53 226.32 146.80 222.61L146.89 220.67C146.89 220.40 145.65 220.23 145.38 220.23C145.03 220.23 144.24 220.40 144.24 220.67L143.97 223.05C143.44 227.91 134.79 237.35 124.82 237.35L112.28 237.35L112.28 206.02L121.64 206.02C124.29 206.02 126.76 212.81 126.76 215.64L126.76 218.28C126.76 218.55 127.99 218.64 128.26 218.64C128.61 218.64 129.41 218.55 129.41 218.28L129.41 191.01C129.41 190.83 128.61 190.66 128.26 190.66C127.99 190.66 126.76 190.83 126.76 191.01L126.76 193.75C126.76 196.57 124.29 203.37 121.64 203.37L112.28 203.37L112.28 177.33L123.05 177.33C133.11 177.33 140.00 183.77 140.62 192.77L140.71 194.01C140.71 194.27 141.85 194.45 142.21 194.45C142.47 194.45 143.35 194.27 143.35 194.01L143.27 192.07C143.00 188.36 142.56 177.77 142.56 176.09C142.56 175.74 141.85 174.68 141.59 174.68L88.01 174.68C87.48 174.68 87.21 175.30 87.21 176.00C87.21 176.71 87.48 177.33 88.01 177.33L94.63 177.33L94.63 237.35L88.01 237.35C87.48 237.35 87.21 237.97 87.21 238.68C87.21 239.38 87.48 240 88.01 240ZM177.34 222.70C175.40 229.94 172.40 238.76 166.57 238.76C166.04 238.76 165.51 238.68 165.07 238.41C169.39 237.26 171.34 233.82 171.34 230.47C171.34 226.49 168.51 222.52 163.39 222.52C158.10 222.52 155.45 226.41 155.45 230.55C155.45 235.50 159.07 240.88 166.13 240.88C173.72 240.88 176.72 232.41 178.75 225.26L184.05 234.70C186.87 239.65 191.02 240.88 195.26 240.88C202.14 240.88 208.68 236.56 208.85 230.20C208.85 228.88 208.68 227.38 208.06 226.05C207.97 225.88 207.79 225.70 207.53 225.70C206.82 225.70 205.67 226.32 206.03 227.02C206.47 227.91 206.82 229.41 206.82 230.73C206.82 232.50 206.03 234.00 204.09 234.00C203.03 234.00 201.44 234.09 187.40 207.96C189.34 201.34 192.26 194.45 197.47 194.45C197.99 194.45 198.44 194.54 198.97 194.72L198.70 194.89C194.46 196.39 192.70 199.48 192.70 202.57C192.70 206.63 195.79 210.61 200.55 210.61C205.94 210.61 208.59 206.72 208.59 202.57C208.59 197.63 204.88 192.24 197.91 192.24C191.20 192.24 188.02 198.87 185.99 205.31L182.37 198.42C179.72 193.39 175.31 192.24 171.07 192.24C164.19 192.24 157.65 196.57 157.48 202.93C157.48 204.25 157.74 205.66 158.18 207.07C158.27 207.43 158.54 207.43 158.80 207.43C159.42 207.43 160.48 206.63 160.30 206.10C159.95 205.13 159.51 203.72 159.51 202.40C159.51 200.63 160.30 199.13 162.24 199.13C163.13 199.13 164.19 199.04 172.04 213.17Z" fill="#ffffff" style="fill: rgb(255, 255, 255);"></path></g><g id="SvgjsG1986" rel="mainfill" name="slogan_text" xmlns:name="slogan_text" transform="translate(107.54980688095094,-148.9593963623047)" fill="#ffffff"><path d="M12.87 236.09Q12.87 238.21 11.24 239.21Q9.61 240.21 6.92 240.21L3.71 240L2.06 240L2.06 225.59L3.71 225.59Q5.23 225.39 6.92 225.39Q9.14 225.39 10.50 226.26Q11.86 227.13 11.86 228.93Q11.86 231.40 9.22 232.18Q12.87 232.94 12.87 236.09M10.17 228.93Q10.17 227.79 9.20 227.06Q8.23 226.33 6.92 226.33Q5.25 226.33 3.75 226.54L3.75 232.08L5.52 232.08Q7.41 232.08 8.79 231.24Q10.17 230.41 10.17 228.93M10.85 236.09Q10.85 234.61 9.52 233.70Q8.19 232.80 6.40 232.80L3.75 232.80L3.75 239.05Q5.25 239.26 6.92 239.26Q8.52 239.26 9.68 238.36Q10.85 237.47 10.85 236.09ZM23.20 235.57L17.04 235.57Q17.04 239.26 19.23 239.26Q20.79 239.26 22.11 238.42L22.11 239.28Q20.79 240.21 19.23 240.21Q17.41 240.21 16.32 238.88Q15.23 237.55 15.23 235.37Q15.23 233.19 16.32 231.86Q17.41 230.53 19.23 230.53Q21.02 230.53 22.11 231.86Q23.20 233.19 23.20 235.37L23.20 235.57M21.39 234.71Q21.39 233.37 20.82 232.38Q20.25 231.40 19.23 231.40Q18.18 231.40 17.61 232.37Q17.04 233.35 17.04 234.71L21.39 234.71ZM31.00 231.60L28.71 231.60L28.71 240L27.11 240L27.11 231.60L24.85 231.60L24.85 230.74L31.00 230.74L31.00 231.60ZM40.72 235.57L34.56 235.57Q34.56 239.26 36.74 239.26Q38.31 239.26 39.62 238.42L39.62 239.28Q38.31 240.21 36.74 240.21Q34.93 240.21 33.84 238.88Q32.75 237.55 32.75 235.37Q32.75 233.19 33.84 231.86Q34.93 230.53 36.74 230.53Q38.53 230.53 39.62 231.86Q40.72 233.19 40.72 235.37L40.72 235.57M38.90 234.71Q38.90 233.37 38.34 232.38Q37.77 231.40 36.74 231.40Q35.69 231.40 35.13 232.37Q34.56 233.35 34.56 234.71L38.90 234.71ZM50.39 231.86Q50.39 231.86 50.82 232.52Q51.25 233.19 51.25 235.37Q51.25 237.55 50.28 238.88Q49.30 240.21 47.43 240.21Q46.17 240.21 44.89 239.65L44.89 244.73L43.29 244.73L43.29 230.74L44.89 230.74L44.89 231.66Q46.31 230.53 47.73 230.53Q49.53 230.53 50.39 231.86M49.44 235.37Q49.44 233.52 48.95 232.46Q48.46 231.40 47.16 231.40Q46.03 231.40 44.89 232.53L44.89 238.79Q46.01 239.34 47.16 239.34Q48.33 239.34 48.89 238.18Q49.44 237.02 49.44 235.37ZM60.74 230.74L60.74 240L59.88 240L59.88 233.21L55.12 240L54.03 240L54.03 230.74L54.90 230.74L54.90 237.53L59.65 230.74L60.74 230.74ZM70.81 240L69.20 240L69.20 235.80L65.64 235.80L65.64 240L64.04 240L64.04 230.74L65.64 230.74L65.64 234.94L69.20 234.94L69.20 230.74L70.81 230.74L70.81 240ZM81.35 240L79.74 240L79.74 239.07Q78.32 240.21 76.90 240.21Q75.32 240.21 74.35 239.40Q73.38 238.60 73.38 237.14Q73.38 235.64 74.43 234.84Q75.48 234.05 77.21 234.05Q78.47 234.05 79.74 234.61L79.74 234.24Q79.74 233.12 79.19 232.30Q78.63 231.48 77.73 231.48Q76.22 231.48 74.70 232.32L74.70 231.68Q76.53 230.53 78.36 230.53Q79.66 230.53 80.50 231.63Q81.35 232.73 81.35 234.24L81.35 240M79.74 238.21L79.74 235.47Q78.63 234.92 77.48 234.92Q76.53 234.92 75.86 235.56Q75.19 236.21 75.19 237.14Q75.19 238.15 75.81 238.74Q76.43 239.34 77.48 239.34Q78.61 239.34 79.74 238.21ZM91.64 231.86Q91.64 231.86 92.07 232.52Q92.51 233.19 92.51 235.37Q92.51 237.55 91.53 238.88Q90.55 240.21 88.68 240.21Q87.42 240.21 86.14 239.65L86.14 244.73L84.54 244.73L84.54 230.74L86.14 230.74L86.14 231.66Q87.57 230.53 88.99 230.53Q90.78 230.53 91.64 231.86M90.69 235.37Q90.69 233.52 90.20 232.46Q89.71 231.40 88.41 231.40Q87.28 231.40 86.14 232.53L86.14 238.79Q87.26 239.34 88.41 239.34Q89.58 239.34 90.14 238.18Q90.69 237.02 90.69 235.37ZM102.06 240L100.45 240L100.45 235.80L96.89 235.80L96.89 240L95.28 240L95.28 230.74L96.89 230.74L96.89 234.94L100.45 234.94L100.45 230.74L102.06 230.74L102.06 240ZM112.60 240L110.99 240L110.99 239.07Q109.57 240.21 108.15 240.21Q106.56 240.21 105.60 239.40Q104.63 238.60 104.63 237.14Q104.63 235.64 105.68 234.84Q106.73 234.05 108.46 234.05Q109.71 234.05 110.99 234.61L110.99 234.24Q110.99 233.12 110.43 232.30Q109.88 231.48 108.97 231.48Q107.47 231.48 105.95 232.32L105.95 231.68Q107.78 230.53 109.61 230.53Q110.91 230.53 111.75 231.63Q112.60 232.73 112.60 234.24L112.60 240M110.99 238.21L110.99 235.47Q109.88 234.92 108.73 234.92Q107.78 234.92 107.11 235.56Q106.44 236.21 106.44 237.14Q106.44 238.15 107.06 238.74Q107.68 239.34 108.73 239.34Q109.86 239.34 110.99 238.21ZM122.93 240L121.32 240L121.32 235.94Q120.17 236.15 118.89 236.15L116.71 240L114.86 240L117.19 235.88Q115.35 235.25 115.35 233.33Q115.35 231.97 116.33 231.25Q117.31 230.53 118.89 230.53Q120.19 230.53 121.36 230.74L122.93 230.74L122.93 240M121.32 235.08L121.32 231.60Q120.17 231.40 118.89 231.40Q118.15 231.40 117.66 231.97Q117.17 232.55 117.17 233.33Q117.17 234.13 117.66 234.71Q118.15 235.29 118.89 235.29Q120.17 235.29 121.32 235.08ZM141.56 240L139.33 240L134.68 235.06L134.68 240L133.08 240L133.08 230.74L134.68 230.74L134.68 234.96L139.70 230.74L141.06 230.74L136.45 234.59L141.56 240ZM150.35 240L148.74 240L148.74 231.60L145.24 231.60L145.24 234.03Q145.24 237.55 143.08 240.31L142.38 239.77Q144.38 237.14 144.38 233.82L144.38 230.74L150.35 230.74L150.35 240ZM160.35 230.74L160.35 240L159.49 240L159.49 233.21L154.73 240L153.64 240L153.64 230.74L154.50 230.74L154.50 237.53L159.26 230.74L160.35 230.74ZM170.42 240L168.81 240L168.81 235.80L165.25 235.80L165.25 240L163.64 240L163.64 230.74L165.25 230.74L165.25 234.94L168.81 234.94L168.81 230.74L170.42 230.74L170.42 240ZM180.42 230.74L180.42 240L179.56 240L179.56 233.21L174.80 240L173.71 240L173.71 230.74L174.57 230.74L174.57 237.53L179.33 230.74L180.42 230.74ZM192.19 240L189.97 240L185.32 235.06L185.32 240L183.71 240L183.71 230.74L185.32 230.74L185.32 234.96L190.34 230.74L191.70 230.74L187.09 234.59L192.19 240ZM201.50 240L199.89 240L199.89 239.07Q198.47 240.21 197.05 240.21Q195.47 240.21 194.50 239.40Q193.53 238.60 193.53 237.14Q193.53 235.64 194.58 234.84Q195.63 234.05 197.36 234.05Q198.62 234.05 199.89 234.61L199.89 234.24Q199.89 233.12 199.34 232.30Q198.78 231.48 197.88 231.48Q196.37 231.48 194.85 232.32L194.85 231.68Q196.68 230.53 198.51 230.53Q199.81 230.53 200.65 231.63Q201.50 232.73 201.50 234.24L201.50 240M199.89 238.21L199.89 235.47Q198.78 234.92 197.63 234.92Q196.68 234.92 196.01 235.56Q195.34 236.21 195.34 237.14Q195.34 238.15 195.96 238.74Q196.58 239.34 197.63 239.34Q198.76 239.34 199.89 238.21Z" fill="#ffffff" style="fill: rgb(255, 255, 255);"></path></g><g id="SvgjsG1987" rel="mainfill" name="symbol" xmlns:name="symbol_mainfill" transform="translate(-13.764599990844719,-16.942799377441407) scale(1.2)" fill="#ffffff"><g fill="#ffffff"><circle fill="" cx="42.451" cy="50.985" r="4.141"></circle><circle fill="" cx="57.306" cy="50.985" r="4.141"></circle><path fill="#ffffff" d="M87.257,27.221L75.503,15.464c-0.871-0.867-2.023-1.345-3.247-1.345c-1.226,0-2.378,0.478-3.246,1.345   l-7.21,7.208H38.27l-7.207-7.208c-0.868-0.867-2.021-1.345-3.246-1.345c-1.228,0-2.381,0.478-3.246,1.345L12.813,27.221   c-1.79,1.791-1.79,4.703,0,6.493l7.424,7.425c0.866,0.866,2.022,1.344,3.247,1.344c0.335,0,0.665-0.043,0.987-0.114V87.52   c0,3.643,2.96,6.6,6.599,6.6h9.631h18.668h9.63c3.638,0,6.601-2.957,6.601-6.6V42.369c0.321,0.071,0.651,0.114,0.987,0.114   c1.227,0,2.378-0.478,3.246-1.344l7.424-7.425C89.047,31.924,89.047,29.012,87.257,27.221z M35.195,86.255V67.589   c0-3.037,2.469-5.506,5.506-5.506h0.071c-0.298,1.4,0.088,2.917,1.178,4.008l4.989,4.991c0.553,0.55,1.217,0.903,1.917,1.1v19.581   h-8.155C37.664,91.763,35.195,89.293,35.195,86.255z M51.215,91.763V72.182c0.7-0.196,1.364-0.55,1.913-1.1l4.992-4.991   c1.088-1.091,1.476-2.607,1.178-4.008h0.071c3.036,0,5.509,2.469,5.509,5.506v18.666c0,3.038-2.473,5.508-5.509,5.508H51.215z    M68.999,91.763h-4.022c1.394-1.419,2.257-3.362,2.257-5.508V67.589c0-4.337-3.527-7.866-7.864-7.866H40.701   c-4.337,0-7.866,3.529-7.866,7.866v18.666c0,2.146,0.863,4.089,2.259,5.508h-4.025c-2.338,0-4.242-1.9-4.242-4.243V41.04   l11.66-11.658c1.178-1.179,1.563-2.84,1.19-4.352h20.713c-0.37,1.512,0.016,3.172,1.193,4.352l11.655,11.655V87.52   C73.24,89.862,71.341,91.763,68.999,91.763z" style="fill: rgb(255, 255, 255);"></path></g></g></svg>